<svg xmlns="http://www.w3.org/2000/svg" xmlns:xlink="http://www.w3.org/1999/xlink" width="1080" zoomAndPan="magnify" viewBox="0 0 810 809.999993" height="1080" preserveAspectRatio="xMidYMid meet" version="1.0"><path stroke-linecap="butt" transform="matrix(3.164062, 0, 0, 3.164062, 0.0000035, 0.00002)" fill-opacity="1" fill="#e684d4" fill-rule="evenodd" stroke-linejoin="miter" d="M 55.61852 178.111113 L 131.262968 83.734565 C 131.262968 83.734565 131.292598 67.944441 144.251857 56.870367 C 160.049389 43.371601 184.877785 45.628391 197.89507 60.071601 C 210.91112 74.513577 214.439515 98.091356 196.644452 115.001234 C 185.566674 125.52716 173.0926 125.425925 173.0926 125.425925 L 78.382719 201.071608 L 69.039508 191.932101 L 51.772841 208.019756 C 51.772841 208.019756 50.344446 209.207411 48.928396 207.441979 C 47.513581 205.676546 48.21852 204.160497 48.21852 204.160497 L 65.258027 187.956793 Z M 73.346916 176.966669 L 79.03457 182.450619 L 154.196302 123.301234 C 154.196302 123.301234 146.186425 118.885184 141.382722 113.832098 C 136.579018 108.779011 133.802474 101.850616 133.802474 101.850616 Z M 149.17408 71.298762 C 149.17408 71.298762 135.875314 89.639504 151.571611 104.628394 C 167.270377 119.618518 185.13581 107.028394 185.13581 107.028394 C 185.13581 107.028394 169.065439 103.301233 160.345685 94.63827 C 151.625932 85.976541 149.17408 71.297528 149.17408 71.297528 Z M 154.566673 66.786417 C 154.566673 66.786417 158.269142 80.895059 167.167908 89.859257 C 176.066674 98.823455 190.041983 102.520986 190.041983 102.520986 C 190.041983 102.520986 202.927169 83.001232 186.771613 68.202466 C 170.613587 53.404934 154.566673 66.786417 154.566673 66.786417 Z M 154.566673 66.786417 " stroke="#e684d4" stroke-width="1" stroke-opacity="1" stroke-miterlimit="4"/></svg>