<!DOCTYPE svg PUBLIC "-//W3C//DTD SVG 1.1//EN" "http://www.w3.org/Graphics/SVG/1.1/DTD/svg11.dtd">
<!-- Uploaded to: SVG Repo, www.svgrepo.com, Transformed by: SVG Repo Mixer Tools -->
<svg fill="#e684d4" version="1.1" id="Capa_1" xmlns="http://www.w3.org/2000/svg" xmlns:xlink="http://www.w3.org/1999/xlink" width="800px" height="800px" viewBox="0 0 31.518 31.518" xml:space="preserve">
<g id="SVGRepo_bgCarrier" stroke-width="0"/>
<g id="SVGRepo_tracerCarrier" stroke-linecap="round" stroke-linejoin="round"/>
<g id="SVGRepo_iconCarrier"> <g> <g> <path d="M15.302,1.668C6.85,1.668,0,7.977,0,15.758C0,23.539,6.85,29.85,15.302,29.85c1.519-8.259,4.996-9.012,8.362-9.012 c0.751,0,1.497,0.038,2.214,0.038c2.521,0,4.687-0.463,5.502-4.646C32.744,9.254,23.752,1.668,15.302,1.668z M28.436,15.657 c-0.433,2.219-0.84,2.219-2.558,2.219c-0.329,0-0.666-0.009-1.006-0.019c-0.399-0.01-0.804-0.02-1.208-0.02 c-3.879,0-8.474,1.068-10.696,8.811C7.297,25.663,3,21.154,3,15.758c0-6.115,5.519-11.09,12.302-11.09 c4.029,0,8.542,2.192,11.229,5.454C27.432,11.216,28.878,13.391,28.436,15.657z"/> <path d="M10.26,17.611c-1.565,0-2.839,1.273-2.839,2.839s1.273,2.839,2.839,2.839c1.564,0,2.838-1.273,2.838-2.839 S11.825,17.611,10.26,17.611z M10.26,21.789c-0.738,0-1.339-0.602-1.339-1.339c0-0.738,0.601-1.339,1.339-1.339 c0.737,0,1.338,0.602,1.338,1.339S10.998,21.789,10.26,21.789z"/> <circle cx="8.467" cy="12.68" r="2.088"/> <circle cx="13.296" cy="8.963" r="2.089"/> <circle cx="19.381" cy="10.455" r="2.089"/> <circle cx="24.089" cy="14.165" r="2.089"/> </g> </g> </g>
</svg>